<?xml version="1.0" encoding="UTF-8"?>
<!DOCTYPE svg PUBLIC "-//W3C//DTD SVG 1.1//EN" "http://www.w3.org/Graphics/SVG/1.1/DTD/svg11.dtd">
<svg xmlns="http://www.w3.org/2000/svg" version="1.1" width="512px" height="512px" style="shape-rendering:geometricPrecision; text-rendering:geometricPrecision; image-rendering:optimizeQuality; fill-rule:evenodd; clip-rule:evenodd" xmlns:xlink="http://www.w3.org/1999/xlink">
<g><path style="opacity:0.986" fill="#233f8f" d="M 162.5,-0.5 C 169.5,-0.5 176.5,-0.5 183.5,-0.5C 195.516,5.20671 199.683,14.54 196,27.5C 193.438,33.0611 189.272,36.8945 183.5,39C 150.599,39.5005 129.432,55.3339 120,86.5C 118.952,105.489 117.952,124.489 117,143.5C 110.3,188.58 89.7996,225.913 55.5,255.5C 89.7996,285.087 110.3,322.42 117,367.5C 117.952,386.511 118.952,405.511 120,424.5C 129.475,455.681 150.642,471.514 183.5,472C 195.65,477.47 199.817,486.637 196,499.5C 193.256,505.079 189.089,509.079 183.5,511.5C 176.5,511.5 169.5,511.5 162.5,511.5C 113.118,500.949 84.9516,470.616 78,420.5C 83.0536,375.355 71.387,335.355 43,300.5C 31.8618,288.858 19.3618,279.025 5.5,271C 3.24806,268.264 1.24806,265.431 -0.5,262.5C -0.5,257.833 -0.5,253.167 -0.5,248.5C 1.24806,245.569 3.24806,242.736 5.5,240C 44.1111,217.695 67.6111,184.528 76,140.5C 77.2058,123.864 77.8724,107.197 78,90.5C 84.9516,40.3842 113.118,10.0509 162.5,-0.5 Z"/></g>
<g><path style="opacity:0.987" fill="#233f8f" d="M 327.5,-0.5 C 334.5,-0.5 341.5,-0.5 348.5,-0.5C 397.882,10.0509 426.048,40.3842 433,90.5C 427.946,135.645 439.613,175.645 468,210.5C 479.138,222.142 491.638,231.975 505.5,240C 507.752,242.736 509.752,245.569 511.5,248.5C 511.5,253.167 511.5,257.833 511.5,262.5C 509.752,265.431 507.752,268.264 505.5,271C 466.889,293.305 443.389,326.472 435,370.5C 433.794,387.136 433.128,403.803 433,420.5C 426.048,470.616 397.882,500.949 348.5,511.5C 341.5,511.5 334.5,511.5 327.5,511.5C 315.484,505.793 311.317,496.46 315,483.5C 317.562,477.939 321.728,474.106 327.5,472C 360.358,471.514 381.525,455.681 391,424.5C 392.048,405.511 393.048,386.511 394,367.5C 400.698,322.425 421.198,285.092 455.5,255.5C 421.198,225.908 400.698,188.575 394,143.5C 393.048,124.489 392.048,105.489 391,86.5C 381.526,55.3196 360.36,39.4862 327.5,39C 315.35,33.5297 311.183,24.3631 315,11.5C 317.744,5.92064 321.911,1.92064 327.5,-0.5 Z"/></g>
</svg>
