<?xml version="1.0" encoding="UTF-8"?>
<!DOCTYPE svg PUBLIC "-//W3C//DTD SVG 1.1//EN" "http://www.w3.org/Graphics/SVG/1.1/DTD/svg11.dtd">
<svg xmlns="http://www.w3.org/2000/svg" version="1.1" width="512px" height="512px" style="shape-rendering:geometricPrecision; text-rendering:geometricPrecision; image-rendering:optimizeQuality; fill-rule:evenodd; clip-rule:evenodd" xmlns:xlink="http://www.w3.org/1999/xlink">
<g><path style="opacity:0.993" fill="#3d3df4" d="M 111.5,3.5 C 166.688,-0.658382 208.522,20.675 237,67.5C 255.194,105.038 256.194,143.038 240,181.5C 219.689,220.924 187.522,244.091 143.5,251C 87.2886,255.648 45.1219,233.815 17,185.5C 0.917683,151.211 -0.748984,116.211 12,80.5C 15.13,73.0749 18.63,65.9082 22.5,59C 20.204,49.7784 17.704,40.6118 15,31.5C 12.9113,21.3028 16.9113,15.6361 27,14.5C 37.7593,16.7522 48.4259,19.4189 59,22.5C 75.3767,12.8873 92.8767,6.554 111.5,3.5 Z M 126.5,27.5 C 157.595,29.7654 176.428,46.0987 183,76.5C 184.951,105.21 172.784,125.376 146.5,137C 144.26,137.977 141.927,138.477 139.5,138.5C 139.906,149.564 139.406,160.564 138,171.5C 134.96,177.603 130.126,179.769 123.5,178C 119.056,175.889 116.556,172.389 116,167.5C 115.333,154.833 115.333,142.167 116,129.5C 116.119,125.094 117.953,121.594 121.5,119C 138.11,119.12 150.277,111.953 158,97.5C 164.724,75.1155 157.224,59.9488 135.5,52C 109.857,49.3105 96.0237,60.8105 94,86.5C 90.3293,95.58 84.1626,97.7467 75.5,93C 73.9588,91.4207 72.7922,89.5873 72,87.5C 71.418,61.4988 82.918,42.9988 106.5,32C 113.145,29.7743 119.811,28.2743 126.5,27.5 Z M 123.5,196.5 C 133.933,195.931 139.267,200.931 139.5,211.5C 139.286,222.222 133.952,227.055 123.5,226C 117.854,222.879 115.187,218.045 115.5,211.5C 115.317,204.86 117.984,199.86 123.5,196.5 Z"/></g>
<g><path style="opacity:0.952" fill="#000000" d="M 237.5,3.5 C 331.207,-0.221415 406.04,35.1119 462,109.5C 506.736,176.251 518.736,248.585 498,326.5C 490.367,352.596 478.867,376.762 463.5,399C 470.227,421.07 476.727,443.237 483,465.5C 485.167,479.333 479.333,485.167 465.5,483C 443.237,476.727 421.07,470.227 399,463.5C 326.289,510.824 248.789,520.324 166.5,492C 89.0518,461.218 37.8851,406.051 13,326.5C 4.65386,297.718 1.65386,268.384 4,238.5C 7.68204,230.156 13.8487,227.656 22.5,231C 25.1353,232.961 26.9686,235.461 28,238.5C 25.0678,315.431 52.2345,379.265 109.5,430C 171.773,479.322 241.439,493.989 318.5,474C 345.098,465.699 369.765,453.699 392.5,438C 395.167,437.333 397.833,437.333 400.5,438C 417.764,443.149 435.097,447.982 452.5,452.5C 447.982,435.097 443.149,417.764 438,400.5C 437.333,397.833 437.333,395.167 438,392.5C 487.181,321.21 495.847,245.21 464,164.5C 426.228,85.4306 363.728,40.2639 276.5,29C 263.833,28.6667 251.167,28.3333 238.5,28C 230.145,24.2781 227.645,18.1114 231,9.5C 233.063,7.26589 235.229,5.26589 237.5,3.5 Z"/></g>
<g><path style="opacity:0.945" fill="#000000" d="M 378.5,107.5 C 392.712,106.54 397.878,112.874 394,126.5C 376.805,144.029 359.305,161.196 341.5,178C 336.833,180 332.167,180 327.5,178C 318.624,168.126 310.124,157.959 302,147.5C 295.995,132.851 300.828,126.018 316.5,127C 318.96,128.458 321.127,130.291 323,132.5C 326.955,138.123 331.288,143.457 336,148.5C 349.758,134.239 363.925,120.572 378.5,107.5 Z"/></g>
<g><path style="opacity:0.951" fill="#000000" d="M 243.5,219.5 C 252.608,219.057 261.608,219.557 270.5,221C 275.685,225.947 276.851,231.781 274,238.5C 272.457,240.378 270.624,241.878 268.5,243C 260.167,243.667 251.833,243.667 243.5,243C 236.132,237.932 234.632,231.432 239,223.5C 240.397,221.93 241.897,220.596 243.5,219.5 Z"/></g>
<g><path style="opacity:0.945" fill="#000000" d="M 378.5,219.5 C 392.712,218.54 397.878,224.874 394,238.5C 376.805,256.029 359.305,273.196 341.5,290C 336.833,292 332.167,292 327.5,290C 318.624,280.126 310.124,269.959 302,259.5C 295.995,244.851 300.828,238.018 316.5,239C 318.96,240.458 321.127,242.291 323,244.5C 326.955,250.123 331.288,255.457 336,260.5C 349.758,246.239 363.925,232.572 378.5,219.5 Z"/></g>
<g><path style="opacity:0.987" fill="#000000" d="M 172.5,267.5 C 204.502,267.333 236.502,267.5 268.5,268C 275.07,271.655 277.237,277.155 275,284.5C 273.5,287.333 271.333,289.5 268.5,291C 236.5,291.667 204.5,291.667 172.5,291C 165.451,286.513 163.617,280.346 167,272.5C 168.73,270.598 170.563,268.931 172.5,267.5 Z"/></g>
<g><path style="opacity:0.991" fill="#000000" d="M 122.5,331.5 C 171.168,331.333 219.834,331.5 268.5,332C 275.549,336.487 277.383,342.654 274,350.5C 272.457,352.378 270.624,353.878 268.5,355C 219.833,355.667 171.167,355.667 122.5,355C 115.451,350.513 113.617,344.346 117,336.5C 118.73,334.598 120.563,332.931 122.5,331.5 Z"/></g>
<g><path style="opacity:0.945" fill="#000000" d="M 378.5,331.5 C 392.712,330.54 397.878,336.874 394,350.5C 376.805,368.029 359.305,385.196 341.5,402C 336.833,404 332.167,404 327.5,402C 318.624,392.126 310.124,381.959 302,371.5C 295.995,356.851 300.828,350.018 316.5,351C 318.96,352.458 321.127,354.291 323,356.5C 326.955,362.123 331.288,367.457 336,372.5C 349.758,358.239 363.925,344.572 378.5,331.5 Z"/></g>
<g><path style="opacity:0.991" fill="#000000" d="M 122.5,379.5 C 171.168,379.333 219.834,379.5 268.5,380C 275.549,384.487 277.383,390.654 274,398.5C 272.457,400.378 270.624,401.878 268.5,403C 219.833,403.667 171.167,403.667 122.5,403C 115.451,398.513 113.617,392.346 117,384.5C 118.73,382.598 120.563,380.931 122.5,379.5 Z"/></g>
</svg>
